<?xml version="1.0" encoding="utf-8"?>
<!-- Generator: Adobe Illustrator 23.0.1, SVG Export Plug-In . SVG Version: 6.00 Build 0)  -->
<svg version="1.1" id="Layer_1" xmlns="http://www.w3.org/2000/svg" xmlns:xlink="http://www.w3.org/1999/xlink" x="0px" y="0px"
	 viewBox="0 0 360 144" style="enable-background:new 0 0 360 144;" xml:space="preserve">
<style type="text/css">
	.st0{fill:none;}
	.st1{fill:#5F023A;}
	.st2{fill:#FFFFFF;}
	.st3{fill:#5D5B5C;}
	.st4{fill:#350520;}
	.st5{fill:#370822;}
	.st6{fill:#380924;}
	.st7{fill:#360722;}
</style>
<g>
	<polygon class="st0" points="277.52,102.84 279.01,102.1 279.01,98.93 277.52,98.93 	"/>
	<polygon class="st0" points="249.53,102.63 251.02,101.9 251.02,98.93 249.53,98.93 	"/>
	<polygon class="st0" points="291.42,102.63 292.91,101.9 292.91,98.93 291.42,98.93 	"/>
	<polygon class="st0" points="263.62,102.84 265.11,102.1 265.11,98.93 263.62,98.93 	"/>
	<polygon class="st0" points="197.46,107.36 199.09,107.36 199.09,103.41 197.46,104.22 	"/>
	<polygon class="st0" points="197.46,102.15 199.09,101.35 199.09,98.88 197.46,98.88 	"/>
	<polygon class="st0" points="305.51,102.68 307,101.94 307,98.93 305.51,98.93 	"/>
	<polygon class="st1" points="318.16,21.78 315.05,81.02 330.75,81.02 330.29,89.92 348.7,89.92 352.7,21.78 	"/>
	<path class="st1" d="M292.92,21.78c2.98,1.45,4.56,4.47,4.33,8.83l-3.11,59.31h8.68l3.57-68.14H292.92z"/>
	<path class="st1" d="M136.47,57.95C136.47,57.95,136.46,57.95,136.47,57.95c0,0,0,0.01,0.01,0.01L136.47,57.95z"/>
	<polygon class="st1" points="91.37,66.87 90.16,89.92 102,89.92 93.18,65.94 	"/>
	<polygon class="st1" points="101.87,32.16 93.19,32.16 92.04,54.06 100.95,49.72 	"/>
	<polygon class="st1" points="62.1,32.16 53.43,32.16 52.23,54.99 61.13,50.65 	"/>
	<path class="st1" d="M73.96,30.61l-1.4,26.65l-21,10.54L50.4,89.92h27.99l3.57-68.14H69.63C72.61,23.23,74.19,26.25,73.96,30.61z"
		/>
	<polygon class="st1" points="10.11,89.92 38.63,89.92 42.2,21.78 14.11,21.78 	"/>
	<path class="st2" d="M136.47,57.95l0.01,0.01C136.47,57.96,136.47,57.96,136.47,57.95c-0.1-0.13-0.15-0.25-0.26-0.38
		c-0.18-0.38-0.05-0.09-0.35-0.68c-0.43-0.81-0.68-1.56-0.57-2.46c-0.85-0.26-1.25,0.46-1.61,0.94c-1.5,1.98-3,3.98-4.36,6.05
		c-1.74,2.65-3.25,5.43-4.35,8.4c-0.06,0.15-0.06,0.32-0.09,0.48c0.16-0.09,0.36-0.14,0.47-0.27c1.18-1.43,2.25-2.95,3.53-4.28
		c2.23-2.32,4.77-4.35,6.89-6.78c0.77-0.89,1.02-0.57,0.73-0.99c-0.01-0.02-0.02-0.03-0.04-0.06L136.47,57.95z"/>
	<path class="st3" d="M125.93,30.66c0-0.05-0.08-0.1-0.12-0.15c-0.03,0.05-0.06,0.1-0.1,0.16c0.03,0.05,0.07,0.1,0.1,0.14
		C125.85,30.76,125.93,30.71,125.93,30.66z"/>
	<path class="st1" d="M256.45,30.61l-3.11,59.31h8.57l3.11-59.31c0.23-4.36,2.07-7.38,5.17-8.83h-18.07
		C255.1,23.23,256.68,26.25,256.45,30.61z"/>
	<polygon class="st1" points="273.69,89.92 282.36,89.92 283.82,62.12 274.91,66.56 	"/>
	<polygon class="st1" points="275.58,53.75 284.48,49.52 285.39,32.16 276.72,32.16 	"/>
	<path class="st1" d="M174.08,21.78c-1.68,0.8-3.29,1.75-4.87,2.75c-0.12,0.07-0.19,0.23-0.28,0.35c0.13,0.01,0.28,0.07,0.4,0.02
		c3.15-1.31,6.48-1.83,9.75-2.57c0.53-0.12,1.06-0.2,1.6-0.26c0.72-0.09,1.36,0.05,1.97,0.47c2.17,1.47,3.62,3.57,5.06,5.69
		c0.37,0.54,0.71,1.09,1.05,1.65c0.06,0.09,0.01,0.25,0.01,0.37c-0.11-0.07-0.25-0.11-0.33-0.2c-1.63-1.95-3.39-3.75-5.71-4.91
		c-0.86-0.43-1.68-0.6-2.74-0.46c-3.71,0.48-7.37,1.21-10.91,2.54c-1.44,0.54-2.78,1.39-4.16,2.11c-0.42,0.22-0.75,0.57-1.26,0.13
		c-1.26-1.12-2.93-1.34-4.53-1.4c-1.8-0.07-3.64,0.15-5.45,0.4c-0.73,0.1-1.46,0.51-2.11,0.93c-0.58,0.37-0.97,0.33-1.43-0.05
		c-1.84-1.53-4.07-2.3-6.35-2.94c-1.89-0.53-3.81-1.06-5.76-1.33c-1.51-0.21-3.07-1.02-4.61-0.21c-1.59,0.83-3.1,1.87-4.55,2.95
		c-0.88,0.66-1.58,1.56-2.36,2.35c-0.07,0.07-0.21,0.08-0.32,0.11c0.01-0.13-0.02-0.28,0.04-0.37c0.38-0.53,0.77-1.05,1.18-1.55
		c0.9-1.12,1.77-2.28,2.75-3.33c0.73-0.78,1.64-1.38,2.44-2.11c1.29-1.17,2.71-0.87,4.1-0.55c2.69,0.62,5.36,1.31,8.03,1.99
		c0.47,0.12,0.91,0.36,1.37,0.52c0.14,0.05,0.32,0.03,0.48,0.04c-0.08-0.12-0.13-0.27-0.24-0.35c-1.48-1-2.99-1.96-4.59-2.75h-32.36
		c2.98,1.45,4.56,4.47,4.33,8.83l-1.35,25.72l-8.91,4.44l10.82,29.15h17.16c-0.12-0.81-0.24-1.61-0.36-2.41
		c-0.33-2.1-0.8-4.21-1.53-6.19c-0.6-1.64,0.08-2.7,1.07-3.85c2.59-2.98,5.95-4.69,9.53-6.03c4.05-1.51,8.2-2.4,12.46-2.46
		c1.88,0,3.77-0.01,5.65,0c4.48,0.02,8.69,1.07,12.76,2.66c2.59,1.01,5,2.36,6.98,4.27c0.99,0.96,1.68,2.24,2.45,3.42
		c0.14,0.21,0.1,0.66-0.02,0.93c-1.38,3.07-2.37,6.26-3.11,9.5c-0.01,0.05-0.02,0.11-0.04,0.16h23.6l3.11-59.31
		c0.23-4.36,2.07-7.38,5.17-8.83H174.08z M131.98,42c0.11-0.03,0.21-0.06,0.32-0.07c0.44-0.08,0.88-0.15,1.32-0.23
		c-0.16-0.38-0.33-0.75-0.48-1.13c-0.36-0.96-0.25-1.92,0.19-2.87c0.1-0.21,0.2-0.41,0.31-0.62c-0.26,0.04-0.52,0.08-0.78,0.11
		c-0.16,0.02-0.33,0.02-0.56,0.04c1.26-1.34,2.78-1.14,4.19-0.98c3.33,0.37,6.56,1.11,9.54,2.62c0.24,0.12,0.51,0.21,0.7,0.38
		c1.19,1.08,2.4,0.64,3.64-0.1c2.41-1.45,2.95-2.95,2.15-6.02c-0.09-0.34-0.13-0.7-0.19-1.05c0.27,0.27,0.58,0.52,0.79,0.83
		c0.69,1.03,1.14,2.16,1.17,3.46c0,0.15,0.02,0.35,0.12,0.44c1.04,0.96,4.21,0.96,5.42,0c0.12-0.1,0.16-0.34,0.19-0.52
		c0.23-1.47,0.94-2.72,1.9-3.85c0.13-0.15,0.32-0.24,0.49-0.36c-0.03,0.18-0.06,0.37-0.09,0.55c-0.24,1.34-0.48,2.68-0.72,4.02
		c-0.02,0.1,0,0.2,0.01,0.31c0.16,1.7,3.68,3.42,5.19,2.56c3.03-1.73,6.31-2.59,9.68-3.08c1.05-0.15,2.12-0.26,3.16-0.22
		c0.61,0.02,1.19,0.35,1.77,0.58c0.12,0.04,0.17,0.23,0.25,0.36c-0.15-0.01-0.3-0.02-0.46-0.03c-0.2-0.02-0.39-0.03-0.59-0.05
		c0.05,0.17,0.09,0.35,0.15,0.51c0.5,1.23,0.42,2.44-0.39,3.59c-0.26,0.37-0.53,0.6,0.2,0.6c0.39,0,0.78,0.16,1.34,0.28
		c-3.09,0.97-6.05,1.54-9.28,1.57c1.12,0.61,2.08,1.11,3,1.66c0.26,0.15,0.45,0.43,0.67,0.65c-0.29-0.07-0.62-0.08-0.88-0.21
		c-2.23-1.11-4.5-2.1-7.26-2.57c0.55,0.49,0.94,0.81,1.29,1.18c0.16,0.17,0.21,0.43,0.31,0.65c-0.22-0.03-0.44-0.04-0.65-0.09
		c-1.48-0.37-2.96-0.75-4.44-1.13c-1.1-0.27-2.18-0.59-3.29-0.79c-1.31-0.25-2.64-0.47-3.98-0.58c-3.16-0.27-6.18,0.95-9.26,1.46
		c-1.15,0.3-2.3,0.6-3.45,0.89c-0.3,0.07-0.6,0.09-0.91,0.11c-0.11,0.01-0.22-0.06-0.33-0.09c0.1-0.08,0.19-0.16,0.29-0.24
		c0.48-0.39,0.97-0.79,1.62-1.32c-3.15,0.4-5.8,1.78-8.51,2.97c-0.04-0.11-0.09-0.22-0.13-0.33c1.31-0.71,2.63-1.42,3.74-2.02
		c-2.73-0.48-5.63-0.98-8.54-1.49C131.95,42.21,131.97,42.1,131.98,42z M125.81,30.51c0.04,0.05,0.12,0.09,0.12,0.15
		c0,0.05-0.07,0.1-0.11,0.15c-0.03-0.05-0.07-0.1-0.1-0.14C125.75,30.62,125.78,30.57,125.81,30.51z M153.59,60.37
		c-0.2-0.01-0.41-0.07-0.57-0.17c-1.05-0.74-2.17-0.42-3.34-0.16c-3.54,0.77-7.06-1.24-8.08-4.65c-0.16-0.54,0-1.27,0.2-1.86
		c0.79-2.26,3.59-4.2,6.05-4.21c0.69-0.04,1.07,0.22,1.23,1.09c0.58,3.27,1.99,6.15,4.09,8.65c0.21,0.25,0.46,0.47,0.71,0.69
		c0.24,0.21,0.5,0.4,0.75,0.59C154.28,60.37,153.93,60.4,153.59,60.37z M161.34,59.88c-0.7-0.2-1.26-0.29-1.99,0.11
		c-0.67,0.36-1.5,0.43-2.26,0.62c3.47-2.81,5.54-6.36,6.72-10.45c0.16-0.56,0.49-0.78,1.02-0.83c2.84-0.31,6.15,2.62,6.07,5.43
		c-0.01,0.32-0.16,0.66-0.31,0.96C168.79,59.27,165.1,60.94,161.34,59.88z M185.8,70.33c-0.15-0.13-0.33-0.23-0.43-0.39
		c-2.32-3.82-5.24-7.14-8.36-10.3c-0.3-0.3-0.66-0.53-0.98-0.81c-0.46-0.42-0.65-0.53-0.65-0.63c-0.03,0.02-0.07,0.04-0.09,0.06
		c-1.96,2.07-4.1,3.92-6.61,5.27c-0.59,0.32-0.47,0.5-0.11,0.84c0.65,0.62,1.26,1.27,1.88,1.93c0.09,0.1,0.13,0.26,0.19,0.39
		c-0.15-0.04-0.31-0.06-0.43-0.14c-1.52-1.07-3.04-2.14-4.55-3.23c-0.11-0.08-0.16-0.25-0.24-0.37c0.12-0.04,0.24-0.1,0.37-0.11
		c1.74-0.21,3.25-1.04,4.47-2.24c1.54-1.51,2.88-3.22,4.34-4.81c0.52-0.57,0.55-1.16,0.41-1.81c-0.86-4.02-5.05-7.89-9.16-8.48
		c-2.37-0.34-5.02,1.08-6.51,3.64c-0.56,0.97-0.91,2.07-1.23,3.15c-0.34,1.15-0.8,1.61-1.93,1.59c-1.07-0.02-1.53-0.45-1.64-1.59
		c-0.21-2.2-1.05-4.08-2.74-5.47c-1.89-1.55-4.09-1.73-6.4-0.79c-3.68,1.49-6.35,4.06-7.87,7.76c-0.31,0.76-0.28,1.4,0.16,2.1
		c1.33,2.09,2.74,4.12,4.81,5.53c0.96,0.65,2.15,0.97,3.24,1.43c0.11,0.05,0.24,0.08,0.36,0.11c-0.09,0.13-0.16,0.29-0.28,0.37
		c-1.62,1.08-3.25,2.16-4.88,3.23c-0.13,0.08-0.3,0.1-0.45,0.14c0.07-0.13,0.12-0.29,0.23-0.39c0.74-0.7,1.5-1.37,2.22-2.09
		c0.1-0.09,0.09-0.49,0-0.54c-2.51-1.5-4.6-3.45-6.43-5.7c0.29,0.42,0.04,0.1-0.73,0.99c-2.12,2.43-4.66,4.45-6.89,6.78
		c-1.28,1.33-2.35,2.85-3.53,4.28c-0.11,0.13-0.31,0.18-0.47,0.27c0.03-0.16,0.03-0.33,0.09-0.48c1.1-2.96,2.6-5.75,4.35-8.4
		c1.37-2.07,2.86-4.07,4.36-6.05c0.37-0.48,0.77-1.2,1.61-0.94c0.36-0.74,0.64-1.53,1.1-2.2c1.65-2.38,3.36-4.81,6.03-6.11
		c1.8-0.87,3.8-1.32,5.71-1.95c0.17-0.03,0.33-0.06,0.5-0.08c1.17-0.15,2.38-0.54,3.49-0.38c2.05,0.3,3.44,1.6,4.19,3.53
		c0.06,0.16,0.18,0.3,0.27,0.45c0.1-0.17,0.21-0.33,0.3-0.5c0.92-1.85,2.37-3.11,4.39-3.44c1-0.16,2.04,0.12,3.07,0.2
		c1.68,0.49,3.39,0.9,5.02,1.5c4.08,1.51,6.05,4.98,7.75,8.67c0.04,0.08,0.01,0.2,0.01,0.3c0.82-0.26,1.15,0.41,1.46,0.86
		c1.12,1.59,2.29,3.17,3.19,4.9c1.6,3.05,3.15,6.15,4,9.55C185.82,69.92,185.8,70.13,185.8,70.33z M189.1,30.78
		c-0.05-0.06-0.11-0.11-0.14-0.18c-0.01-0.02,0.07-0.08,0.11-0.12c0.04,0.05,0.1,0.1,0.1,0.15
		C189.19,30.67,189.13,30.73,189.1,30.78z"/>
	<path class="st1" d="M152.38,25.9c0.47,0.53,0.93,0.57,1.55,0.42c2.22-0.55,4.44-0.53,6.63-0.15c1.14,0.2,2.19,0.44,2.99-0.79
		c0.08-0.13,0.29-0.17,0.43-0.26c2.16-1.44,4.47-2.48,6.86-3.34l-26,0c0.69,0.24,1.37,0.49,2.04,0.78
		C148.86,23.4,150.92,24.24,152.38,25.9z"/>
	<path class="st1" d="M227.81,21.78c1.78,1.11,2.71,3.13,2.56,5.94c0.15-2.81,1.25-4.83,3.11-5.94H227.81z"/>
	<polygon class="st1" points="215.67,32.27 212.65,89.92 221.33,89.92 224.35,32.27 	"/>
	<polygon class="st1" points="232.89,89.92 241.47,89.92 244.49,32.27 235.92,32.27 	"/>
	<path class="st2" d="M146.58,24.89c-0.16-0.01-0.33,0.01-0.48-0.04c-0.46-0.16-0.9-0.4-1.37-0.52c-2.67-0.68-5.34-1.36-8.03-1.99
		c-1.39-0.32-2.8-0.63-4.1,0.55c-0.8,0.72-1.71,1.33-2.44,2.11c-0.98,1.05-1.84,2.21-2.75,3.33c-0.41,0.51-0.8,1.03-1.18,1.55
		c-0.06,0.09-0.03,0.25-0.04,0.37c0.11-0.04,0.25-0.04,0.32-0.11c0.79-0.79,1.48-1.7,2.36-2.35c1.45-1.08,2.96-2.12,4.55-2.95
		c1.54-0.8,3.1,0,4.61,0.21c1.95,0.28,3.87,0.8,5.76,1.33c2.28,0.64,4.51,1.42,6.35,2.94c0.46,0.39,0.86,0.42,1.43,0.05
		c0.65-0.41,1.39-0.83,2.11-0.93c1.81-0.24,3.65-0.46,5.45-0.4c1.6,0.06,3.27,0.28,4.53,1.4c0.5,0.44,0.84,0.09,1.26-0.13
		c1.38-0.72,2.72-1.57,4.16-2.11c3.54-1.33,7.19-2.05,10.91-2.54c1.06-0.14,1.88,0.03,2.74,0.46c2.32,1.16,4.08,2.96,5.71,4.91
		c0.08,0.09,0.22,0.14,0.33,0.2c0-0.13,0.05-0.28-0.01-0.37c-0.34-0.56-0.68-1.11-1.05-1.65c-1.44-2.12-2.89-4.22-5.06-5.69
		c-0.61-0.41-1.25-0.56-1.97-0.47c-0.53,0.06-1.07,0.14-1.6,0.26c-3.27,0.74-6.6,1.26-9.75,2.57c-0.11,0.05-0.26-0.01-0.4-0.02
		c0.09-0.12,0.16-0.27,0.28-0.35c1.59-1,3.2-1.96,4.87-2.75c1.38-0.66,2.8-1.21,4.3-1.58c0.13-0.03,0.22-0.26,0.34-0.39
		c-0.34,0-0.68,0-1.02,0c-1.35,0.34-2.72,0.62-4.05,1.04c-0.94,0.29-1.87,0.6-2.8,0.93c-2.39,0.86-4.71,1.9-6.86,3.34
		c-0.14,0.09-0.35,0.14-0.43,0.26c-0.8,1.24-1.85,0.99-2.99,0.79c-2.19-0.38-4.41-0.4-6.63,0.15c-0.62,0.15-1.08,0.11-1.55-0.42
		c-1.46-1.66-3.52-2.5-5.5-3.34c-0.67-0.28-1.35-0.54-2.04-0.78c-1.74-0.6-3.54-1.1-5.3-1.67c-0.39-0.13-0.79-0.2-1.19-0.3
		c-0.34,0-0.68,0-1.02,0c0.1,0.13,0.17,0.36,0.29,0.39c1.46,0.37,2.82,0.92,4.13,1.58c1.59,0.8,3.1,1.75,4.59,2.75
		C146.45,24.61,146.5,24.77,146.58,24.89z"/>
	<path class="st4" d="M180.42,80.26c0.12-0.27,0.17-0.72,0.02-0.93c-0.77-1.18-1.46-2.46-2.45-3.42c-1.98-1.91-4.38-3.26-6.98-4.27
		c-4.07-1.59-8.28-2.64-12.76-2.66c-1.88-0.01-3.77,0-5.65,0c-4.27,0.06-8.41,0.95-12.46,2.46c-3.58,1.34-6.93,3.05-9.53,6.03
		c-0.99,1.14-1.67,2.21-1.07,3.85c0.72,1.98,1.2,4.08,1.53,6.19c0.13,0.8,0.25,1.61,0.36,2.41c0.48,3.3,0.86,6.63,0.88,10
		c0.02,2.94,0.1,5.87,0.12,8.81c0.01,0.85-0.12,1.71-0.11,2.56c0.01,0.41,0.1,0.88,0.33,1.2c1.28,1.82,2.87,3.35,4.68,4.64
		c4.35,3.08,9.37,4.35,14.72,4.46c2.43,0.05,4.92-0.34,7.34-0.78c5.14-0.95,9.58-3.41,13.31-7.21c0.99-1.01,1.52-2.1,1.49-3.54
		c-0.03-1.51,0.21-3.05,0.4-4.57c0.31-2.56,0.6-5.12,1.04-7.67c0.45-2.64,1.02-5.26,1.61-7.88c0.01-0.05,0.02-0.11,0.04-0.16
		C178.05,86.52,179.04,83.34,180.42,80.26z M170.45,107.21c0.04,1.84-0.3,3.82-1.41,5.62c-0.64,1.04-1.5,1.79-2.82,1.88
		c-1.26,0.09-1.92-0.59-2.48-1.52c-0.09-0.15-0.22-0.29-0.34-0.43c-0.08,0.18-0.17,0.35-0.24,0.54c-0.69,1.87-3,3.03-4.72,1.57
		c-0.29-0.25-0.38-0.27-0.66,0.07c-1.29,1.56-2.77,1.81-4.43,0.86c-0.19-0.11-0.56-0.11-0.74,0.01c-1.5,1-3.58,0.55-4.35-0.88
		c-0.13-0.24-0.21-0.44-0.56-0.13c-1.77,1.58-4.28,0.38-4.63-1.62c-0.03-0.15-0.12-0.29-0.19-0.43c-0.11,0.12-0.24,0.22-0.32,0.35
		c-1.53,2.57-4.29,1.77-5.27-0.2c-0.67-1.36-1-2.82-0.92-4.38c0.05-1.2,0.11-2.39,0.2-3.59c0.02-0.25,0.15-0.51,0.23-0.76
		c0.17,0.17,0.36,0.33,0.5,0.52c0.85,1.2,1.64,2.45,2.54,3.61c0.5,0.65,1.19,1.15,1.78,1.73c0.45,0.44,0.87,1.03,1.35-0.06
		c0.05-0.11,0.44-0.19,0.63-0.14c1.41,0.36,2.92,0.48,4.04,1.54c0.08,0.08,0.39,0.07,0.4,0.05c0.23-0.71,0.79-0.44,1.21-0.44
		c2.7-0.02,5.4-0.02,8.09,0c0.39,0,0.94-0.23,1.08,0.43c0,0.01,0.36,0.01,0.47-0.09c1.28-1.04,2.84-1.15,4.31-1.53
		c0.15-0.04,0.47,0.17,0.52,0.34c0.23,0.74,0.58,0.46,1.01,0.14c2.08-1.53,3.68-3.49,5.13-5.59c0.14-0.2,0.37-0.34,0.56-0.5
		c0.05,0.22,0.15,0.44,0.14,0.66C170.55,105.58,170.49,106.3,170.45,107.21z M175.55,80.12c-0.05,2.9-0.9,5.59-2.62,8.01
		c-0.66,0.93-1.45,1.76-2.19,2.63c-0.08,0.1-0.22,0.15-0.34,0.22c-0.04-0.14-0.13-0.28-0.12-0.43c0.11-3.83-0.99-7.36-2.13-10.89
		c-0.06-0.2-0.24-0.37-0.36-0.55c-0.07,0.21-0.19,0.42-0.21,0.63c-0.05,0.51-0.08,1.02-0.09,1.54c-0.01,0.6-0.32,0.65-0.81,0.55
		c-1.66-0.34-3.33-0.69-5.01-0.96c-0.67-0.11-0.42-0.54-0.47-0.9c-0.02-0.15-0.08-0.3-0.12-0.45c-0.12,0.1-0.29,0.19-0.34,0.31
		c-0.23,0.56-0.65,0.62-1.18,0.62c-3.14-0.02-6.28-0.02-9.42,0c-0.56,0-1-0.07-1.18-0.67c-0.03-0.11-0.16-0.18-0.24-0.27
		c-0.07,0.14-0.21,0.29-0.2,0.41c0.07,0.81-0.33,0.88-1.04,0.97c-1.51,0.19-3.03,0.47-4.5,0.91c-0.85,0.25-0.96,0.05-0.89-0.67
		c0.05-0.51,0.06-1.02,0.07-1.54c0-0.16-0.06-0.31-0.1-0.46c-0.14,0.12-0.34,0.23-0.4,0.38c-0.67,1.63-1.44,3.23-1.94,4.9
		c-0.59,1.96-0.93,3.98-1.39,5.97c-0.04,0.15-0.11,0.3-0.17,0.45c-0.17-0.09-0.38-0.13-0.49-0.26c-1.32-1.55-2.38-3.25-2.98-5.24
		c-0.82-2.7-0.73-5.45-0.17-8.23c0.35-1.72,1.69-2.53,3.43-2.64c1.71-0.11,2.82,0.62,3.79,1.78c0.29,0.35,0.44,0.58,0.81-0.05
		c0.92-1.55,2.33-2.37,4.08-2.21c0.59,0.05,1.15,0.59,1.65,1c0.26,0.21,0.24,0.37,0.52-0.04c1.45-2.12,4.46-2.4,6.07-0.58
		c0.26,0.29,0.27,0.28,0.55,0c1.8-1.82,4.78-1.54,6.01,0.58c0.24,0.41,0.26,0.28,0.51,0.02c1.38-1.37,3.09-1.4,4.42-0.07
		c0.48,0.48,0.88,1.04,1.34,1.54c0.07,0.07,0.33,0.09,0.41,0.02c0.38-0.31,0.71-0.68,1.08-1c1.32-1.16,3.39-1.42,4.83-0.64
		c1.46,0.79,1.49,2.24,1.59,3.66C175.67,79.02,175.58,79.58,175.55,80.12z"/>
	<path class="st5" d="M136.74,45.83c0.04,0.11,0.09,0.22,0.13,0.33c2.71-1.19,5.36-2.57,8.51-2.97c-0.65,0.53-1.13,0.92-1.62,1.32
		c-0.1,0.08-0.19,0.16-0.29,0.24c0.11,0.03,0.22,0.1,0.33,0.09c0.3-0.02,0.61-0.04,0.91-0.11c1.15-0.28,2.3-0.59,3.45-0.89
		c3.09-0.52,6.1-1.74,9.26-1.46c1.34,0.11,2.67,0.34,3.98,0.58c1.11,0.21,2.19,0.52,3.29,0.79c1.48,0.38,2.96,0.76,4.44,1.13
		c0.21,0.05,0.43,0.06,0.65,0.09c-0.1-0.22-0.15-0.48-0.31-0.65c-0.35-0.37-0.74-0.69-1.29-1.18c2.76,0.47,5.03,1.46,7.26,2.57
		c0.26,0.13,0.58,0.15,0.88,0.21c-0.22-0.22-0.4-0.5-0.67-0.65c-0.93-0.54-1.88-1.04-3-1.66c3.23-0.04,6.19-0.61,9.28-1.57
		c-0.56-0.12-0.95-0.28-1.34-0.28c-0.73,0-0.46-0.23-0.2-0.6c0.81-1.15,0.88-2.36,0.39-3.59c-0.07-0.16-0.1-0.34-0.15-0.51
		c0.2,0.02,0.39,0.03,0.59,0.05c0.15,0.01,0.3,0.02,0.46,0.03c-0.08-0.12-0.13-0.31-0.25-0.36c-0.58-0.22-1.17-0.56-1.77-0.58
		c-1.05-0.04-2.11,0.07-3.16,0.22c-3.37,0.48-6.65,1.34-9.68,3.08c-1.51,0.86-5.03-0.85-5.19-2.56c-0.01-0.1-0.03-0.21-0.01-0.31
		c0.24-1.34,0.48-2.68,0.72-4.02c0.03-0.18,0.06-0.37,0.09-0.55c-0.16,0.12-0.36,0.21-0.49,0.36c-0.96,1.13-1.67,2.38-1.9,3.85
		c-0.03,0.18-0.07,0.42-0.19,0.52c-1.21,0.96-4.38,0.96-5.42,0c-0.1-0.09-0.12-0.29-0.12-0.44c-0.02-1.29-0.48-2.43-1.17-3.46
		c-0.21-0.31-0.52-0.56-0.79-0.83c0.06,0.35,0.11,0.7,0.19,1.05c0.8,3.07,0.26,4.57-2.15,6.02c-1.24,0.74-2.44,1.18-3.64,0.1
		c-0.19-0.17-0.46-0.26-0.7-0.38c-2.97-1.51-6.2-2.25-9.54-2.62c-1.42-0.16-2.93-0.36-4.19,0.98c0.23-0.01,0.4-0.02,0.56-0.04
		c0.26-0.03,0.52-0.07,0.78-0.11c-0.1,0.21-0.21,0.41-0.31,0.62c-0.44,0.95-0.56,1.91-0.19,2.87c0.15,0.38,0.32,0.76,0.48,1.13
		c-0.44,0.08-0.88,0.15-1.32,0.23c-0.11,0.02-0.21,0.05-0.32,0.07c-0.02,0.11-0.03,0.21-0.05,0.32c2.91,0.51,5.82,1.02,8.54,1.49
		C139.37,44.41,138.06,45.12,136.74,45.83z M170.83,41.03c1.66-0.92,3.33-1.83,5-2.75c0.45-0.25,0.47-0.05,0.47,0.34
		c0.01,2.08-1.12,3.11-3.46,3.16c-0.66-0.09-1.33-0.17-1.98-0.28c-0.11-0.02-0.21-0.14-0.31-0.22
		C170.64,41.2,170.72,41.09,170.83,41.03z M139.27,41.5c-1.28-0.43-1.91-1.8-1.47-3.11c0.02-0.05,0.28-0.1,0.37-0.06
		c0.68,0.33,1.36,0.65,2,1.04c0.9,0.54,1.77,1.12,2.66,1.69c0.1,0.07,0.17,0.18,0.26,0.27c-0.14,0.07-0.27,0.17-0.42,0.2
		c-0.6,0.1-1.21,0.18-1.86,0.28C140.31,41.71,139.76,41.67,139.27,41.5z"/>
	<path class="st6" d="M175.76,57.72c0.12-0.14,0.07-0.11,0.19-0.25c0.15-0.22,0.16-0.29,0.34-0.6c0.57-0.89,0.84-1.54,0.82-2.45
		c0-0.1,0.03-0.22-0.01-0.3c-1.69-3.69-3.66-7.16-7.75-8.67c-1.63-0.6-3.35-1.01-5.02-1.5c-1.02-0.08-2.07-0.36-3.07-0.2
		c-2.02,0.32-3.46,1.58-4.39,3.44c-0.09,0.17-0.2,0.33-0.3,0.5c-0.09-0.15-0.21-0.29-0.27-0.45c-0.75-1.93-2.14-3.23-4.19-3.53
		c-1.11-0.16-2.32,0.24-3.49,0.38c-0.17,0.02-0.33,0.05-0.5,0.08c-1.91,0.63-3.91,1.08-5.71,1.95c-2.68,1.3-4.38,3.73-6.03,6.11
		c-0.46,0.67-0.74,1.46-1.1,2.2c-0.11,0.9,0.14,1.65,0.57,2.46c0.31,0.58,0.18,0.3,0.35,0.68c0.1,0.14,0.15,0.25,0.25,0.38
		c0,0,0,0,0,0l-0.01-0.03c0.02,0.02,0.02,0.04,0.04,0.06c1.83,2.25,3.93,4.2,6.43,5.7c0.09,0.05,0.1,0.45,0,0.54
		c-0.72,0.71-1.48,1.39-2.22,2.09c-0.1,0.1-0.15,0.26-0.23,0.39c0.15-0.05,0.32-0.06,0.45-0.14c1.63-1.07,3.26-2.14,4.88-3.23
		c0.12-0.08,0.19-0.25,0.28-0.37c-0.12-0.04-0.24-0.06-0.36-0.11c-1.09-0.46-2.29-0.78-3.24-1.43c-2.06-1.41-3.48-3.43-4.81-5.53
		c-0.44-0.7-0.47-1.33-0.16-2.1c1.52-3.71,4.19-6.27,7.87-7.76c2.31-0.94,4.51-0.76,6.4,0.79c1.69,1.39,2.53,3.26,2.74,5.47
		c0.11,1.14,0.57,1.57,1.64,1.59c1.13,0.02,1.6-0.44,1.93-1.59c0.32-1.07,0.67-2.18,1.23-3.15c1.49-2.56,4.14-3.98,6.51-3.64
		c4.11,0.59,8.3,4.46,9.16,8.48c0.14,0.64,0.11,1.24-0.41,1.81c-1.46,1.59-2.81,3.3-4.34,4.81c-1.22,1.21-2.73,2.04-4.47,2.24
		c-0.12,0.01-0.24,0.07-0.37,0.11c0.08,0.13,0.13,0.29,0.24,0.37c1.51,1.08,3.02,2.16,4.55,3.23c0.12,0.08,0.29,0.09,0.43,0.14
		c-0.06-0.13-0.09-0.29-0.19-0.39c-0.62-0.65-1.23-1.31-1.88-1.93c-0.36-0.35-0.48-0.53,0.11-0.84c2.51-1.35,4.65-3.21,6.61-5.27
		c0.03-0.03,0.06-0.04,0.09-0.06c0-0.07,0.07-0.12,0.19-0.25L175.76,57.72z"/>
	<path class="st7" d="M170.61,55.72c0.15-0.3,0.3-0.64,0.31-0.96c0.07-2.81-3.23-5.74-6.07-5.43c-0.54,0.06-0.86,0.27-1.02,0.83
		c-1.18,4.09-3.25,7.64-6.72,10.45c0.76-0.19,1.58-0.26,2.26-0.62c0.73-0.4,1.29-0.3,1.99-0.11
		C165.1,60.94,168.79,59.27,170.61,55.72z"/>
	<path class="st7" d="M153.16,59.07c-2.1-2.51-3.5-5.39-4.09-8.65c-0.16-0.88-0.54-1.13-1.23-1.09c-2.46,0.01-5.26,1.95-6.05,4.21
		c-0.2,0.59-0.37,1.32-0.2,1.86c1.02,3.4,4.55,5.41,8.08,4.65c1.17-0.25,2.29-0.57,3.34,0.16c0.16,0.11,0.37,0.16,0.57,0.17
		c0.34,0.02,0.69-0.01,1.03-0.02c-0.25-0.2-0.51-0.38-0.75-0.59C153.62,59.54,153.37,59.32,153.16,59.07z"/>
	<path class="st2" d="M181.78,60.18c-0.9-1.72-2.07-3.3-3.19-4.9c-0.32-0.45-0.64-1.12-1.46-0.86c0.02,0.9-0.26,1.55-0.82,2.45
		c-0.18,0.31-0.19,0.38-0.34,0.6c-0.12,0.14-0.07,0.11-0.19,0.25l-0.19,0.22c-0.12,0.13-0.2,0.19-0.19,0.25
		c0.01,0.1,0.19,0.22,0.65,0.63c0.32,0.28,0.68,0.51,0.98,0.81c3.12,3.16,6.04,6.48,8.36,10.3c0.1,0.16,0.28,0.26,0.43,0.39
		c-0.01-0.2,0.02-0.41-0.02-0.6C184.93,66.33,183.38,63.23,181.78,60.18z"/>
	<path class="st3" d="M188.96,30.6c0.03,0.07,0.09,0.12,0.14,0.18c0.03-0.05,0.08-0.11,0.08-0.15c-0.01-0.05-0.06-0.09-0.1-0.15
		C189.03,30.52,188.96,30.58,188.96,30.6z"/>
	<path class="st2" d="M174.04,74.83c-1.44-0.78-3.51-0.52-4.83,0.64c-0.37,0.32-0.7,0.69-1.08,1c-0.08,0.07-0.34,0.06-0.41-0.02
		c-0.46-0.5-0.86-1.06-1.34-1.54c-1.33-1.33-3.04-1.3-4.42,0.07c-0.25,0.25-0.27,0.39-0.51-0.02c-1.23-2.12-4.21-2.4-6.01-0.58
		c-0.28,0.28-0.29,0.29-0.55,0c-1.61-1.82-4.63-1.54-6.07,0.58c-0.28,0.41-0.26,0.25-0.52,0.04c-0.5-0.41-1.05-0.95-1.65-1
		c-1.75-0.16-3.16,0.67-4.08,2.21c-0.37,0.62-0.52,0.39-0.81,0.05c-0.97-1.16-2.08-1.89-3.79-1.78c-1.74,0.11-3.08,0.92-3.43,2.64
		c-0.57,2.78-0.65,5.54,0.17,8.23c0.6,1.99,1.66,3.69,2.98,5.24c0.11,0.13,0.32,0.18,0.49,0.26c0.06-0.15,0.14-0.3,0.17-0.45
		c0.46-1.99,0.8-4.01,1.39-5.97c0.5-1.67,1.27-3.28,1.94-4.9c0.06-0.15,0.26-0.25,0.4-0.38c0.03,0.15,0.1,0.31,0.1,0.46
		c-0.01,0.51-0.02,1.02-0.07,1.54c-0.07,0.72,0.05,0.92,0.89,0.67c1.47-0.44,2.99-0.72,4.5-0.91c0.71-0.09,1.11-0.16,1.04-0.97
		c-0.01-0.13,0.13-0.27,0.2-0.41c0.08,0.09,0.21,0.17,0.24,0.27c0.18,0.6,0.62,0.67,1.18,0.67c3.14-0.02,6.28-0.02,9.42,0
		c0.52,0,0.94-0.06,1.18-0.62c0.05-0.13,0.22-0.21,0.34-0.31c0.04,0.15,0.1,0.29,0.12,0.45c0.04,0.36-0.2,0.8,0.47,0.9
		c1.68,0.27,3.35,0.62,5.01,0.96c0.49,0.1,0.8,0.05,0.81-0.55c0.01-0.51,0.04-1.03,0.09-1.54c0.02-0.21,0.14-0.42,0.21-0.63
		c0.12,0.18,0.29,0.34,0.36,0.55c1.13,3.53,2.23,7.06,2.13,10.89c0,0.14,0.08,0.28,0.12,0.43c0.11-0.07,0.25-0.12,0.34-0.22
		c0.74-0.87,1.53-1.71,2.19-2.63c1.72-2.42,2.57-5.11,2.62-8.01c0.03-0.55,0.11-1.1,0.08-1.64
		C175.53,77.07,175.5,75.62,174.04,74.83z"/>
	<path class="st2" d="M169.86,104.7c-1.45,2.1-3.06,4.06-5.13,5.59c-0.43,0.32-0.78,0.6-1.01-0.14c-0.05-0.16-0.37-0.38-0.52-0.34
		c-1.48,0.38-3.04,0.49-4.31,1.53c-0.11,0.09-0.47,0.1-0.47,0.09c-0.14-0.66-0.69-0.42-1.08-0.43c-2.7-0.02-5.39-0.02-8.09,0
		c-0.42,0-0.98-0.26-1.21,0.44c-0.01,0.02-0.32,0.03-0.4-0.05c-1.11-1.06-2.63-1.18-4.04-1.54c-0.19-0.05-0.58,0.02-0.63,0.14
		c-0.48,1.09-0.9,0.5-1.35,0.06c-0.59-0.58-1.28-1.08-1.78-1.73c-0.9-1.16-1.69-2.41-2.54-3.61c-0.14-0.2-0.33-0.35-0.5-0.52
		c-0.08,0.25-0.21,0.51-0.23,0.76c-0.08,1.19-0.14,2.39-0.2,3.59c-0.07,1.56,0.25,3.01,0.92,4.38c0.98,1.98,3.74,2.78,5.27,0.2
		c0.08-0.13,0.21-0.24,0.32-0.35c0.06,0.14,0.16,0.28,0.19,0.43c0.35,1.99,2.86,3.2,4.63,1.62c0.35-0.32,0.43-0.12,0.56,0.13
		c0.77,1.42,2.85,1.87,4.35,0.88c0.18-0.12,0.55-0.12,0.74-0.01c1.66,0.95,3.15,0.69,4.43-0.86c0.28-0.34,0.37-0.31,0.66-0.07
		c1.72,1.47,4.03,0.31,4.72-1.57c0.07-0.18,0.16-0.36,0.24-0.54c0.11,0.14,0.24,0.27,0.34,0.43c0.56,0.92,1.22,1.61,2.48,1.52
		c1.32-0.09,2.18-0.84,2.82-1.88c1.11-1.8,1.45-3.78,1.41-5.62c0.05-0.91,0.1-1.63,0.11-2.35c0-0.22-0.09-0.44-0.14-0.66
		C170.23,104.37,170,104.5,169.86,104.7z"/>
	<path class="st2" d="M172.84,41.79c2.34-0.05,3.47-1.08,3.46-3.16c0-0.39-0.02-0.59-0.47-0.34c-1.66,0.92-3.33,1.83-5,2.75
		c-0.11,0.06-0.19,0.17-0.28,0.26c0.1,0.08,0.2,0.2,0.31,0.22C171.52,41.62,172.18,41.7,172.84,41.79z"/>
	<path class="st2" d="M142.67,41.52c0.14-0.02,0.28-0.13,0.42-0.2c-0.08-0.09-0.15-0.21-0.26-0.27c-0.88-0.57-1.75-1.15-2.66-1.69
		c-0.64-0.38-1.32-0.71-2-1.04c-0.1-0.05-0.36,0-0.37,0.06c-0.45,1.31,0.19,2.68,1.47,3.11c0.5,0.17,1.04,0.21,1.54,0.3
		C141.46,41.71,142.07,41.63,142.67,41.52z"/>
	<path class="st4" d="M199.39,96.98h-3.88v12.29h3.72c1.22,0,1.81-0.55,1.81-1.7v-4.83h-0.87c0.62-0.21,0.87-0.69,0.87-1.49v-2.58
		C201.04,97.58,200.42,96.98,199.39,96.98z M199.09,107.36h-1.63v-3.13l1.63-0.81V107.36z M199.09,101.35l-1.63,0.8v-3.28h1.63
		V101.35z"/>
	<path class="st4" d="M212.65,107.32h-1.47v-2.85l-2.04,1.03v2.09c0,1.08,0.62,1.68,1.65,1.68h2.25c1.03,0,1.65-0.6,1.65-1.68V96.98
		h-2.04V107.32z"/>
	<path class="st4" d="M226.32,107.32h-1.47v-2.85l-2.04,1.03v2.09c0,1.08,0.62,1.68,1.65,1.68h2.25c1.03,0,1.65-0.6,1.65-1.68V96.98
		h-2.04V107.32z"/>
	<path class="st4" d="M251.39,96.98h-2.25c-1.03,0-1.63,0.6-1.63,1.68v10.61h2.02v-4.44l1.49-0.76v5.21h2.02V98.66
		C253.04,97.58,252.42,96.98,251.39,96.98z M251.02,101.9l-1.49,0.73v-3.7h1.49V101.9z"/>
	<path class="st4" d="M265.48,96.98h-3.88v12.29h2.02v-4.23l3.51-1.81v-4.57C267.13,97.58,266.51,96.98,265.48,96.98z M265.11,102.1
		l-1.49,0.74v-3.91h1.49V102.1z"/>
	<path class="st4" d="M279.38,96.98h-3.88v12.29h2.02v-4.23l3.51-1.81v-4.57C281.03,97.58,280.41,96.98,279.38,96.98z M279.01,102.1
		l-1.49,0.74v-3.91h1.49V102.1z"/>
	<path class="st4" d="M293.28,96.98h-2.25c-1.03,0-1.63,0.6-1.63,1.68v10.61h2.02v-4.44l1.49-0.76v5.21h2.02V98.66
		C294.93,97.58,294.31,96.98,293.28,96.98z M292.91,101.9l-1.49,0.73v-3.7h1.49V101.9z"/>
	<path class="st4" d="M309.02,103.07v-4.41c0-1.08-0.62-1.68-1.65-1.68h-3.88v12.29h2.02v-4.39l0.3-0.16l1.91,4.55h2.11l-2.3-5.44
		L309.02,103.07z M307,101.94l-1.49,0.74v-3.75H307V101.94z"/>
	<polygon class="st4" points="317.55,109.27 322.42,109.27 322.42,107.3 319.57,107.3 319.57,104.33 322.42,102.88 322.42,100.68 
		319.57,102.11 319.57,98.95 322.42,98.95 322.42,96.98 317.55,96.98 	"/>
	<polygon class="st4" points="332.76,96.98 330.74,96.98 330.74,109.27 335.45,109.27 335.45,107.3 332.76,107.3 	"/>
</g>
</svg>
